<svg xmlns="http://www.w3.org/2000/svg" width="240" height="108" viewBox="0 0 240 108">
  <defs>
    <linearGradient id="infrared-upper" x1="0%" y1="0%" x2="100%" y2="70%">
      <stop offset="0%" stop-color="#fefefe"/>
      <stop offset="100%" stop-color="#f7f0ff"/>
    </linearGradient>
    <linearGradient id="infrared-midsole" x1="0%" y1="0%" x2="100%" y2="0%">
      <stop offset="0%" stop-color="#ff668a"/>
      <stop offset="100%" stop-color="#ff1f52"/>
    </linearGradient>
    <radialGradient id="infrared-glow" cx="50%" cy="40%" r="60%">
      <stop offset="0%" stop-color="rgba(255,255,255,0.7)"/>
      <stop offset="100%" stop-color="rgba(255,255,255,0)"/>
    </radialGradient>
  </defs>
  <rect width="240" height="108" rx="18" fill="#f6f2fa"/>
  <rect x="12" y="12" width="216" height="84" rx="36" fill="url(#infrared-upper)"/>
  <path d="M18 66c46-34 152-34 198 0l6 12c-62 24-148 24-210 0z" fill="url(#infrared-midsole)"/>
  <path d="M60 58c12-16 38-22 68-22s56 6 68 22-12 16-32 16-34-10-56-10-36 10-48 0z" fill="#1a1a1a" opacity="0.07"/>
  <ellipse cx="120" cy="50" rx="78" ry="30" fill="url(#infrared-glow)" opacity="0.85"/>
  <path d="M148 54c-6 0-8-4-14-4s-8 4-14 4c6 2 10 4 14 4s8-2 14-4z" fill="#2a2a2a" opacity="0.2"/>
</svg>

