<svg xmlns="http://www.w3.org/2000/svg" width="240" height="108" viewBox="0 0 240 108">
  <defs>
    <linearGradient id="sunset-upper" x1="0%" y1="0%" x2="100%" y2="70%">
      <stop offset="0%" stop-color="#fef7f2"/>
      <stop offset="100%" stop-color="#fbe2cc"/>
    </linearGradient>
    <linearGradient id="sunset-midsole" x1="0%" y1="0%" x2="100%" y2="0%">
      <stop offset="0%" stop-color="#ffa563"/>
      <stop offset="100%" stop-color="#ff5b2c"/>
    </linearGradient>
    <radialGradient id="sunset-glow" cx="50%" cy="40%" r="60%">
      <stop offset="0%" stop-color="rgba(255, 255, 255, 0.65)"/>
      <stop offset="100%" stop-color="rgba(255, 255, 255, 0)"/>
    </radialGradient>
  </defs>
  <rect width="240" height="108" rx="18" fill="#faf1eb"/>
  <rect x="12" y="12" width="216" height="84" rx="36" fill="url(#sunset-upper)"/>
  <path d="M18 66c46-34 152-34 198 0l6 12c-62 24-148 24-210 0z" fill="url(#sunset-midsole)"/>
  <path d="M56 56c12-18 38-24 70-24s58 6 70 24-12 18-34 18-36-12-58-12-36 12-48 0z" fill="#1f1f1f" opacity="0.08"/>
  <ellipse cx="120" cy="50" rx="78" ry="30" fill="url(#sunset-glow)" opacity="0.9"/>
  <path d="M146 54c-6 0-8-4-14-4s-8 4-14 4c6 2 10 4 14 4s8-2 14-4z" fill="#383838" opacity="0.18"/>
</svg>

